<svg width="256" height="256" viewBox="0 0 256 256" fill="none" xmlns="http://www.w3.org/2000/svg">
<g clip-path="url(#clip0_665_2)">
<path d="M224.001 21.3335H32.0007C29.1717 21.3335 26.4586 22.4573 24.4582 24.4577C22.4578 26.4581 21.334 29.1712 21.334 32.0002V224C21.334 226.829 22.4578 229.542 24.4582 231.543C26.4586 233.543 29.1717 234.667 32.0007 234.667H224.001C226.83 234.667 229.543 233.543 231.543 231.543C233.544 229.542 234.667 226.829 234.667 224V32.0002C234.667 29.1712 233.544 26.4581 231.543 24.4577C229.543 22.4573 226.83 21.3335 224.001 21.3335ZM213.334 85.3335H170.667V128H213.334V170.667H170.667V213.333H128.001V170.667H85.334V213.333H42.6673V170.667H85.334V128H42.6673V85.3335H85.334V42.6668H128.001V85.3335H170.667V42.6668H213.334V85.3335Z" fill="#7452AD"/>
<path d="M85.334 85.3335H128.001V128H85.334V85.3335ZM128.001 128H170.667V170.667H128.001V128Z" fill="#7452AD"/>
</g>
<defs>
<clipPath id="clip0_665_2">
<rect width="256" height="256" fill="white"/>
</clipPath>
</defs>
</svg>
