<svg width="506" height="506" viewBox="0 0 506 506" fill="none" xmlns="http://www.w3.org/2000/svg">
<g clip-path="url(#clip0_665_2)">
<path d="M463.126 21.5835H43.8757C37.6983 21.5835 31.774 24.0374 27.406 28.4055C23.0379 32.7735 20.584 38.6978 20.584 44.8752V464.125C20.584 470.302 23.0379 476.227 27.406 480.595C31.774 484.963 37.6983 487.417 43.8757 487.417H463.126C469.303 487.417 475.227 484.963 479.595 480.595C483.963 476.227 486.417 470.302 486.417 464.125V44.8752C486.417 38.6978 483.963 32.7735 479.595 28.4055C475.227 24.0374 469.303 21.5835 463.126 21.5835ZM439.834 161.333H346.667V254.5H439.834V347.667H346.667V440.833H253.501V347.667H160.334V440.833H67.1673V347.667H160.334V254.5H67.1673V161.333H160.334V68.1668H253.501V161.333H346.667V68.1668H439.834V161.333Z" fill="#7452AD"/>
<path d="M160.334 161.333H253.501V254.5H160.334V161.333ZM253.501 254.5H346.667V347.667H253.501V254.5Z" fill="#7452AD"/>
</g>
<defs>
<clipPath id="clip0_665_2">
<rect width="506" height="506" fill="white"/>
</clipPath>
</defs>
</svg>
